<?xml version="1.0" encoding="UTF-8"?>
<!-- Generator: visioncortex VTracer 0.6.12 -->
<svg version="1.1" xmlns="http://www.w3.org/2000/svg" viewBox="0 0 800 800" width="800" height="800">
<rect width="800" height="800" fill="#1c1a17"/>
<path d="M0 0 C97.68 0 195.36 0 296 0 C296 38.61 296 77.22 296 117 C292.467 115.233 291.291 114.436 288.812 111.688 C277.319 99.961 263.149 91.141 249 83 C248.38 82.636 247.76 82.271 247.121 81.896 C210.526 60.513 165.929 52.14 124 51 C122.702 50.959 121.404 50.917 120.066 50.875 C47.116 49.718 -21.898 73.749 -75 124 C-75.465 124.438 -75.465 124.438 -77.816 126.652 C-84.967 133.579 -91.044 141.044 -97 149 C-97.416 149.545 -97.832 150.089 -98.261 150.65 C-119.555 178.581 -132.393 211.043 -139.404 245.26 C-139.586 246.131 -139.769 247.001 -139.957 247.898 C-140.111 248.668 -140.266 249.439 -140.425 250.232 C-140.615 250.815 -140.805 251.399 -141 252 C-156.802 259.901 -176.337 252.346 -194 252 C-194 181.38 -194 110.76 -194 38 C-129.98 38 -65.96 38 0 38 C0 25.46 0 12.92 0 0 Z " fill="#f4efe7" transform="translate(470,35)"/>
<path d="M0 0 C0.771 0.003 1.542 0.006 2.337 0.009 C3.148 0.008 3.96 0.007 4.796 0.006 C7.545 0.005 10.294 0.01 13.043 0.016 C15.035 0.016 17.028 0.016 19.021 0.015 C24.376 0.015 29.732 0.021 35.088 0.028 C40.106 0.033 45.124 0.034 50.142 0.034 C64.836 0.04 79.53 0.054 94.224 0.067 C127.039 0.087 159.853 0.108 193.662 0.129 C193.662 70.749 193.662 141.369 193.662 214.129 C176.832 214.294 176.832 214.294 91.662 215.129 C91.332 374.189 91.002 533.249 90.662 697.129 C58.652 697.129 26.642 697.129 -6.338 697.129 C-6.346 665.312 -6.346 665.312 -6.349 652.971 C-6.349 652.203 -6.35 651.435 -6.35 650.643 C-6.362 599.798 -6.373 548.953 -6.381 498.108 C-6.381 497.127 -6.381 496.146 -6.381 495.135 C-6.384 473.817 -6.387 452.499 -6.389 431.181 C-6.391 420.728 -6.392 410.274 -6.393 399.821 C-6.393 398.78 -6.393 397.74 -6.394 396.668 C-6.398 362.918 -6.405 329.168 -6.414 295.418 C-6.424 260.75 -6.43 226.082 -6.432 191.415 C-6.432 186.524 -6.433 181.633 -6.433 176.743 C-6.433 175.78 -6.433 174.817 -6.433 173.826 C-6.434 158.298 -6.439 142.77 -6.445 127.242 C-6.451 111.651 -6.453 96.059 -6.452 80.468 C-6.451 71.193 -6.453 61.917 -6.459 52.641 C-6.463 46.457 -6.463 40.273 -6.46 34.089 C-6.459 30.557 -6.459 27.026 -6.463 23.495 C-6.468 19.704 -6.465 15.913 -6.461 12.122 C-6.464 11.008 -6.466 9.894 -6.469 8.746 C-6.467 7.746 -6.465 6.746 -6.462 5.716 C-6.463 4.848 -6.463 3.979 -6.463 3.085 C-6.203 -0.997 -3.443 0.01 0 0 Z " fill="#f4efe7" transform="translate(36.338194847106934,72.8709192276001)"/>
<path d="M0 0 C0.918 0.002 1.836 0.004 2.781 0.007 C45.258 0.166 89.565 8.61 124.438 34.312 C124.701 34.506 124.701 34.506 126.033 35.484 C133.546 41.034 140.61 46.932 147.438 53.312 C151.441 49.99 155.221 46.58 158.875 42.875 C162.311 39.392 165.862 36.137 169.574 32.953 C172.327 30.529 174.877 27.937 177.438 25.312 C178.098 25.642 178.757 25.972 179.438 26.312 C179.438 82.083 179.438 137.853 179.438 195.312 C164.587 195.643 149.737 195.972 134.438 196.312 C134.465 201.208 134.492 206.104 134.52 211.148 C134.602 227.318 134.625 243.486 134.616 259.656 C134.613 269.46 134.629 279.264 134.695 289.068 C134.751 297.615 134.77 306.16 134.742 314.707 C134.728 319.232 134.734 323.755 134.786 328.28 C134.834 332.542 134.831 336.802 134.788 341.064 C134.782 342.625 134.794 344.186 134.826 345.747 C135.056 357.509 135.056 357.509 131.051 361.973 C128.262 364.034 125.506 365.707 122.438 367.312 C120.997 368.201 119.56 369.095 118.129 370 C116.759 370.782 115.383 371.553 114 372.312 C113.241 372.73 112.482 373.147 111.701 373.577 C73.784 393.901 31.75 398.864 -10.562 398.312 C-10.595 397.866 -10.595 397.866 -10.759 395.604 C-14.769 341.814 -27.808 290.257 -63.562 248.312 C-64.509 247.181 -65.456 246.05 -66.402 244.918 C-75.329 234.306 -84.656 224.924 -95.562 216.312 C-96.504 215.543 -97.445 214.773 -98.414 213.98 C-131.38 187.617 -170.711 173.119 -211.562 164.312 C-204.873 126.618 -189.098 93.165 -162.562 65.312 C-162.02 64.742 -161.477 64.172 -160.917 63.585 C-131.397 32.789 -92.668 13.06 -51 4.562 C-50.033 4.364 -49.065 4.165 -48.068 3.96 C-32.093 0.872 -16.242 -0.069 0 0 Z " fill="#f4efe7" transform="translate(586.5625,127.6875)"/>
<path d="M0 0 C18.48 0 36.96 0 56 0 C57.658 1.658 57.122 3.652 57.129 5.866 C57.128 6.217 57.128 6.217 57.12 7.992 C57.121 8.732 57.122 9.472 57.123 10.234 C57.125 12.732 57.119 15.231 57.114 17.729 C57.113 19.512 57.113 21.296 57.114 23.079 C57.114 27.936 57.108 32.793 57.101 37.651 C57.095 42.721 57.095 47.791 57.093 52.861 C57.09 62.47 57.082 72.078 57.072 81.686 C57.061 92.622 57.055 103.558 57.05 114.493 C57.04 136.996 57.022 159.498 57 182 C72.18 182 87.36 182 103 182 C102.995 176.522 102.99 171.044 102.984 165.401 C102.968 147.352 102.956 129.302 102.948 111.253 C102.943 100.305 102.936 89.356 102.925 78.407 C102.915 68.868 102.908 59.328 102.906 49.789 C102.905 44.735 102.902 39.68 102.894 34.626 C102.888 29.875 102.885 25.123 102.887 20.372 C102.887 18.623 102.885 16.873 102.881 15.124 C102.876 12.747 102.877 10.369 102.88 7.992 C102.877 7.29 102.874 6.589 102.871 5.866 C102.886 1.114 102.886 1.114 104 0 C105.391 -0.098 106.787 -0.128 108.181 -0.129 C109.069 -0.133 109.957 -0.136 110.872 -0.139 C111.838 -0.137 112.805 -0.135 113.801 -0.133 C114.789 -0.134 115.777 -0.135 116.794 -0.136 C118.89 -0.136 120.986 -0.135 123.082 -0.13 C126.288 -0.125 129.495 -0.13 132.701 -0.137 C134.734 -0.136 136.768 -0.135 138.801 -0.133 C139.761 -0.135 140.722 -0.137 141.712 -0.139 C142.16 -0.137 142.16 -0.137 144.431 -0.129 C145.218 -0.129 146.006 -0.128 146.817 -0.127 C148.996 -0 150.906 0.399 153 1 C153.032 1.45 153.032 1.45 153.196 3.724 C155.718 37.727 161.053 70.014 176 101 C176.633 102.357 177.266 103.713 177.898 105.07 C188.559 127.55 203.717 147.246 221 165 C221.825 165.865 222.65 166.73 223.5 167.621 C258.799 203.992 306.706 222.667 355 234 C348.027 283.588 323.845 327.157 283.746 357.477 C275.256 363.778 266.374 369.122 257 374 C256.641 374.188 256.641 374.188 254.826 375.137 C177.967 414.758 79.783 399 0 399 C0 267.33 0 135.66 0 0 Z " fill="#f4efe7" transform="translate(173,329)"/>
<path d="M0 0 C46.997 7.23 92.043 34.671 120.501 72.671 C142.58 102.942 157.502 141.807 157.062 179.625 C157.053 180.649 157.044 181.672 157.035 182.727 C157.024 183.477 157.012 184.227 157 185 C118.712 176.24 85.357 158.04 57 131 C56.098 130.162 55.195 129.324 54.266 128.461 C23.516 99.044 0.992 53.05 -0.098 10.156 C-0.086 8.95 -0.074 7.743 -0.062 6.5 C-0.053 5.273 -0.044 4.046 -0.035 2.781 C-0.024 1.863 -0.012 0.946 0 0 Z " fill="#f4efe7" transform="translate(373,335)"/>
<path d="M0 0 C0.023 33.488 0.04 66.975 0.051 100.463 C0.052 104.412 0.054 108.361 0.055 112.311 C0.055 112.704 0.055 112.704 0.056 114.693 C0.06 127.442 0.068 140.19 0.077 152.938 C0.086 166.009 0.092 179.079 0.094 192.15 C0.095 200.222 0.1 208.294 0.108 216.366 C0.114 222.545 0.114 228.724 0.113 234.903 C0.113 237.446 0.115 239.988 0.119 242.531 C0.124 245.986 0.123 249.441 0.12 252.895 C0.122 253.405 0.122 253.405 0.129 255.987 C0.127 256.906 0.125 257.824 0.123 258.77 C0.123 259.568 0.124 260.367 0.124 261.189 C0 263 0 263 -1 264 C-3.22 264.098 -5.444 264.124 -7.667 264.123 C-8.375 264.124 -9.084 264.125 -9.814 264.127 C-12.218 264.129 -14.623 264.125 -17.027 264.12 C-18.756 264.121 -20.485 264.122 -22.215 264.123 C-26.99 264.125 -31.765 264.121 -36.54 264.116 C-41.68 264.112 -46.82 264.113 -51.961 264.114 C-60.875 264.114 -69.789 264.111 -78.703 264.106 C-91.591 264.098 -104.479 264.095 -117.368 264.094 C-138.276 264.092 -159.184 264.085 -180.092 264.075 C-200.407 264.066 -220.723 264.059 -241.039 264.055 C-241.664 264.055 -241.664 264.055 -244.831 264.054 C-251.108 264.053 -257.385 264.052 -263.662 264.05 C-315.775 264.04 -367.887 264.022 -420 264 C-420 263.67 -420 263.34 -420 263 C-419.248 262.915 -418.497 262.831 -417.722 262.744 C-350.688 255.007 -286.139 229.011 -242.438 175.666 C-215.836 141.904 -200.954 104.026 -193 62 C-192.628 62.006 -192.628 62.006 -190.746 62.035 C-125.21 62.577 -55.438 47.26 -5 3 C-4.725 2.711 -4.725 2.711 -3.332 1.25 C-2 0 -2 0 0 0 Z " fill="#f4efe7" transform="translate(766,506)"/>
</svg>
