<?xml version="1.0" encoding="UTF-8"?>
<svg data-bbox="29.869 35 736.26 735.127" height="800" width="800" viewBox="0 0 800 800" xmlns="http://www.w3.org/2000/svg" data-type="shape">
    <g>
        <path d="M470 35h296v117c-3.533-1.767-4.709-2.564-7.188-5.312C747.319 134.961 733.149 126.141 719 118l-1.879-1.104C680.526 95.513 635.929 87.14 594 86l-3.934-.125C517.116 84.718 448.102 108.749 395 159l-2.816 2.652C385.033 168.579 378.956 176.044 373 184l-1.261 1.65c-21.294 27.931-34.132 60.393-41.143 94.61l-.553 2.638-.468 2.334L329 287c-15.802 7.901-35.337.346-53 0V73h194z"/>
        <path d="m36.338 72.87 2.337.009 2.459-.003q4.123 0 8.247.01l5.978-.001q8.033.001 16.067.013 7.527.007 15.054.006c14.694.006 29.388.02 44.082.033l99.438.062v214l-102 1-1 482H30l-.011-44.158-.001-2.328q-.019-76.268-.031-152.535v-2.973l-.008-63.954-.004-31.36-.001-3.153q-.006-50.625-.02-101.25-.015-52.002-.018-104.003l-.001-14.672v-2.917q-.002-23.292-.012-46.584-.009-23.387-.007-46.774.002-13.913-.007-27.827-.006-9.276-.001-18.552.002-5.298-.003-10.594-.006-5.686.002-11.373l-.008-3.376.007-3.03-.001-2.631c.26-4.082 3.02-3.075 6.463-3.085"/>
        <path d="m586.563 127.688 2.781.007c42.477.159 86.784 8.603 121.657 34.305l1.595 1.172A241 241 0 0 1 734.001 181c4.003-3.322 7.783-6.732 11.437-10.437 3.436-3.483 6.987-6.738 10.699-9.922 2.753-2.424 5.303-5.016 7.864-7.641l2 1v169l-45 1 .082 14.836c.082 16.17.105 32.338.096 48.508-.003 9.804.013 19.608.079 29.412.056 8.547.075 17.092.047 25.639-.014 4.525-.008 9.048.044 13.573.048 4.262.045 8.522.002 12.784q-.01 2.341.038 4.683c.23 11.762.23 11.762-3.775 16.226-2.789 2.061-5.545 3.734-8.613 5.339a456 456 0 0 0-4.309 2.688q-2.055 1.173-4.129 2.312l-2.299 1.265c-37.917 20.324-79.951 25.287-122.263 24.735l-.197-2.708c-4.01-53.79-17.049-105.347-52.803-147.292l-2.84-3.394c-8.927-10.612-18.254-19.994-29.16-28.606l-2.852-2.332c-32.966-26.363-72.297-40.861-113.148-49.668 6.689-37.694 22.464-71.147 49-99l1.645-1.727c29.52-30.796 68.249-50.525 109.917-59.023l2.932-.602c15.975-3.088 31.826-4.029 48.068-3.96"/>
        <path d="M173 329h56c1.658 1.658 1.122 3.652 1.129 5.866l-.009 2.126.003 2.242c.002 2.498-.004 4.997-.009 7.495v5.35q-.001 7.285-.013 14.572c-.006 5.07-.006 10.14-.008 15.21q-.005 14.413-.021 28.825-.016 16.404-.022 32.807-.016 33.754-.05 67.507h46l-.016-16.599q-.024-27.074-.036-54.148-.007-16.422-.023-32.846-.015-14.309-.019-28.618 0-7.582-.012-15.163-.01-7.127-.007-14.254 0-2.624-.006-5.248-.007-3.566-.001-7.132l-.009-2.126c.015-4.752.015-4.752 1.129-5.866a60 60 0 0 1 4.181-.129l2.691-.01 2.929.006 2.993-.003q3.144 0 6.288.006 4.81.005 9.619-.007l6.1.004 2.911-.006 2.719.01 2.386.002c2.179.127 4.089.526 6.183 1.127l.196 2.724c2.522 34.003 7.857 66.29 22.804 97.276l1.898 4.07C361.559 456.55 376.717 476.246 394 494l2.5 2.621C431.799 532.992 479.706 551.667 528 563c-6.973 49.588-31.155 93.157-71.254 123.477-8.49 6.301-17.372 11.645-26.746 16.523l-2.174 1.137C350.967 743.758 252.783 728 173 728z"/>
        <path d="M373 335c46.997 7.23 92.043 34.671 120.501 72.671 22.079 30.271 37.001 69.136 36.561 106.954l-.027 3.102L530 520c-38.288-8.76-71.643-26.96-100-54l-2.734-2.539c-30.75-29.417-53.274-75.411-54.364-118.305l.036-3.656.027-3.719z"/>
        <path d="M766 506q.034 50.232.051 100.463l.004 11.848.001 2.382q.007 19.123.021 38.245.014 19.606.017 39.212.002 12.108.014 24.216.008 9.268.005 18.537 0 3.814.006 7.628.007 5.183.001 10.364l.009 3.092-.006 2.783.001 2.419C766 769 766 769 765 770c-2.22.098-4.444.124-6.667.123l-2.147.004q-3.606.002-7.213-.007l-5.188.003q-7.163.002-14.325-.007-7.71-.005-15.421-.002-13.371 0-26.742-.008-19.332-.011-38.665-.012-31.362-.004-62.724-.019-30.473-.014-60.947-.02l-3.792-.001-18.831-.004Q424.169 770.034 346 770v-1l2.278-.256c67.034-7.737 131.583-33.733 175.284-87.078C550.164 647.904 565.046 610.026 573 568l2.254.035C640.79 568.577 710.562 553.26 761 509l1.668-1.75C764 506 764 506 766 506"/>
    </g>
</svg>
